<?xml version="1.0" encoding="UTF-8" standalone="no"?>
<svg
   width="96"
   height="96"
   viewBox="0 0 96 95.999997"
   version="1.1"
   id="svg1"
   sodipodi:docname="maskable.svg"
   inkscape:version="1.3.2 (1:1.3.2+202311252150+091e20ef0f)"
   xml:space="preserve"
   xmlns:inkscape="http://www.inkscape.org/namespaces/inkscape"
   xmlns:sodipodi="http://sodipodi.sourceforge.net/DTD/sodipodi-0.dtd"
   xmlns="http://www.w3.org/2000/svg"
   xmlns:svg="http://www.w3.org/2000/svg"><sodipodi:namedview
     id="namedview1"
     pagecolor="#ffffff"
     bordercolor="#000000"
     borderopacity="0.25"
     inkscape:showpageshadow="2"
     inkscape:pageopacity="0.0"
     inkscape:pagecheckerboard="0"
     inkscape:deskcolor="#d1d1d1"
     inkscape:zoom="6.25"
     inkscape:cx="45.04"
     inkscape:cy="76.96"
     inkscape:window-width="2506"
     inkscape:window-height="1376"
     inkscape:window-x="54"
     inkscape:window-y="27"
     inkscape:window-maximized="1"
     inkscape:current-layer="svg1" /><defs
     id="defs1" /><rect
     style="fill:#171819;stroke:none;stroke-linecap:round;fill-opacity:1"
     id="rect1"
     width="96"
     height="96"
     x="0"
     y="0" /><g
     id="Group_4"
     data-name="Group 4"
     transform="matrix(0.90506766,0,0,0.90506766,12.520748,-10.514779)"><g
       id="Group_3"
       data-name="Group 3"
       transform="translate(5.808,35.281)"><g
         id="Group_2"
         data-name="Group 2"><path
           id="Path_33"
           data-name="Path 33"
           d="M 26.645,75.179 A 19.12,19.12 0 1 1 59.283,61.871 h 0.018 a 26.743,26.743 0 1 0 -16.445,24.848 16.1,16.1 0 0 1 -2.4,-5.943 19.062,19.062 0 0 1 -13.811,-5.597 z"
           transform="translate(-5.808,-35.281)"
           fill="#f4f4f4" /><path
           id="Path_34"
           data-name="Path 34"
           d="m 291.482,228.539 a 26.766,26.766 0 0 1 -16.445,24.844 16.2,16.2 0 1 0 16.445,-24.844 z"
           transform="translate(-237.99,-201.946)"
           fill="#f4f4f4" /><path
           id="Path_35"
           data-name="Path 35"
           d="m 255.613,242.817 a 16.291,16.291 0 0 0 0.273,2.97 19.116,19.116 0 0 0 18.827,-18.9 16.207,16.207 0 0 0 -19.1,15.934 z"
           transform="translate(-221.239,-200.292)"
           fill="#f4f4f4" /></g></g></g></svg>
